/* XPM */
const static char *gae_mapeditor_xpm[] = {
/* columns rows colors chars-per-pixel */
"48 48 247 2 ",
"   c #060606",
".  c #0D0D0D",
"X  c #0E110D",
"o  c #11150F",
"O  c #12180F",
"+  c #131413",
"@  c #151C12",
"#  c #1C1C1C",
"$  c #162112",
"%  c #192415",
"&  c #1C2B15",
"*  c #1C231A",
"=  c #1F2C19",
"-  c #1F3117",
";  c #1F3118",
":  c #20211F",
">  c #222D1D",
",  c #203617",
"<  c #23331C",
"1  c #253B1B",
"2  c #283E1E",
"3  c #232423",
"4  c #282727",
"5  c #262B24",
"6  c #2A2B2A",
"7  c #263521",
"8  c #2A3526",
"9  c #2B3B24",
"0  c #2C3429",
"q  c #2E3D28",
"w  c #31352F",
"e  c #303F29",
"r  c #323232",
"t  c #353C32",
"y  c #383837",
"u  c #3B3B3B",
"i  c #244217",
"p  c #26431A",
"a  c #28441C",
"s  c #274819",
"d  c #2A4B1C",
"f  c #2D531D",
"g  c #2D581C",
"h  c #315E1D",
"j  c #32631E",
"k  c #33681D",
"l  c #2E4325",
"z  c #2F4D22",
"x  c #2F4028",
"c  c #304627",
"v  c #314B25",
"b  c #31402B",
"n  c #354B2D",
"m  c #325524",
"M  c #345C23",
"N  c #37532A",
"B  c #38572B",
"V  c #395C2B",
"C  c #374630",
"Z  c #394634",
"A  c #3A4B32",
"S  c #3D423B",
"D  c #3F4F39",
"F  c #3E5235",
"G  c #3E5834",
"H  c #366223",
"J  c #386426",
"K  c #3A6B24",
"L  c #3C642B",
"P  c #3D6A2A",
"I  c #3C7424",
"U  c #3F7B25",
"Y  c #3F7628",
"T  c #3F6331",
"R  c #40433F",
"E  c #425E36",
"W  c #42543B",
"Q  c #465D3C",
"!  c #485E3F",
"~  c #40662F",
"^  c #416D2E",
"/  c #407827",
"(  c #42732D",
")  c #447D2C",
"_  c #426333",
"`  c #436B32",
"'  c #47643A",
"]  c #4A6C3B",
"[  c #467432",
"{  c #497635",
"}  c #467A31",
"|  c #497B34",
" . c #4B723B",
".. c #4D7B3A",
"X. c #507C3E",
"o. c #444544",
"O. c #484C47",
"+. c #4B4B4B",
"@. c #465441",
"#. c #485643",
"$. c #4C5C45",
"%. c #4E544B",
"&. c #4E5E48",
"*. c #515D4C",
"=. c #525352",
"-. c #565955",
";. c #5B5C5B",
":. c #4D6244",
">. c #4D6B40",
",. c #53634D",
"<. c #576E4E",
"1. c #537C41",
"2. c #58704E",
"3. c #5B7D4C",
"4. c #596255",
"5. c #5B6D54",
"6. c #5D625B",
"7. c #5C7452",
"8. c #5F7C53",
"9. c #63725C",
"0. c #627858",
"q. c #646664",
"w. c #656B64",
"e. c #686B66",
"r. c #6B6B6B",
"t. c #6B7467",
"y. c #6B7B64",
"u. c #6E716C",
"i. c #6E7A68",
"p. c #71746F",
"a. c #727D6D",
"s. c #747574",
"d. c #757D72",
"f. c #7A7E77",
"g. c #7B7B7A",
"h. c #408026",
"j. c #46832C",
"k. c #49862F",
"l. c #468B29",
"z. c #4A8D2E",
"x. c #4C932E",
"c. c #4B8334",
"v. c #4D8B33",
"b. c #4E8239",
"n. c #508E37",
"m. c #52833C",
"M. c #538C3A",
"N. c #4E9132",
"B. c #519435",
"V. c #549B36",
"C. c #55943A",
"Z. c #58943D",
"A. c #569B39",
"S. c #599C3D",
"D. c #57A237",
"F. c #5BA43C",
"G. c #5DAA3C",
"H. c #5EB03C",
"J. c #60AD3F",
"K. c #568442",
"L. c #588346",
"P. c #578B42",
"I. c #5A8C44",
"U. c #5E854E",
"Y. c #5F8A4D",
"T. c #5B9543",
"R. c #5D9B43",
"E. c #5E9448",
"W. c #609D46",
"Q. c #61934C",
"!. c #629B4A",
"~. c #608351",
"^. c #668E55",
"/. c #67805D",
"(. c #6B8C5E",
"). c #679455",
"_. c #679C51",
"`. c #689854",
"'. c #6D935D",
"]. c #729E5F",
"[. c #5EA241",
"{. c #61A543",
"}. c #62AC43",
"|. c #65A44A",
" X c #68A64E",
".X c #67AA4C",
"XX c #6AAB4E",
"oX c #65B145",
"OX c #69B349",
"+X c #67A250",
"@X c #6CA654",
"#X c #6DAC52",
"$X c #6EA158",
"%X c #73A45F",
"&X c #73AB5C",
"*X c #70B154",
"=X c #6F8465",
"-X c #6E8B62",
";X c #728E66",
":X c #72836A",
">X c #729962",
",X c #7A8D72",
"<X c #7C827A",
"1X c #7D8878",
"2X c #7D9373",
"3X c #7AAD64",
"4X c #7BA76A",
"5X c #7BB464",
"6X c #83937C",
"7X c #82A373",
"8X c #83A972",
"9X c #85A278",
"0X c #88A77B",
"qX c #828382",
"wX c #878986",
"eX c #888B87",
"rX c #8C8C8C",
"tX c #869182",
"yX c #8A9C82",
"uX c #8F928D",
"iX c #90948E",
"pX c #929392",
"aX c #959993",
"sX c #989897",
"dX c #9D9D9D",
"fX c #8DA085",
"gX c #9BA199",
"hX c #A3A3A3",
"jX c #A4ABA2",
"kX c #A9AFA6",
"lX c #AEAEAD",
"zX c #ABB5A6",
"xX c #A7B9A0",
"cX c #ACBBA5",
"vX c #AFB5AC",
"bX c #B6B6B6",
"nX c #B6BCB4",
"mX c #BCBCBC",
"MX c #C3C3C3",
"NX c #CCCCCC",
"BX c #D3D3D3",
"VX c #DDDDDD",
"CX c #E4E4E4",
"ZX c #ECECEC",
"AX c #F2F2F2",
"SX c #FEFEFE",
"DX c None",
/* pixels */
"DXDXDXDXDXDXDXDXDXDXDXDXDXDXDXDXDXDXDXDXDXDXDXDXDXDXDXDXDXDXDXDXDXDXDXDXDXDXDXDXDXDXDXDXDXDXDXDX",
"DXDXDXDXDXDXDXDXDXDXDXDXDXDXDXDXDXDXDXDXDXDXDXDXDXDXDXDXDXDXDXDXDXDXDXDXDXDXDXDXDXDXDXDXDXDXDXDX",
"DXDXDXDXDXDXDXDXDXDXDXDXDXDXDXDXDXDXDXDXDXDXDXDXDXDXDXDXDXDXDXDXDXDXDXDXDXDXDXDXDXDXDXDXDXDXDXDX",
"DXDXDXDXDXDXDXDXDXDXDXDXDXDXDXDXDXDXDXDXDXDXDXDXDXDXDXDXDXDXDXDXDXDXDXDXDXDXDXDXDXDXDXDXDXDXDXDX",
"DXDXDXDXDXDXDXDXDXDXDXDXDXDXDXDXDXDXDXDXDXDXDXDXDXDXDXDXDXDXDXDXDXDXDXDXDXDXDXDXDXDXDXDXDXDXDXDX",
"DXDXDXDXDXDXDXDXDXDXDXDXDXDXDXDXDXDXDXDXDXDXDXDXDXDXDXDXDXDXDXDXDXDXDXDXDXDXDXDXDXDXDXDXDXDXDXDX",
"DXDXDXDXDXDXDXDXDXDXDXDXDXDXDX .] ] X.X.1.P.L.~.DXDXDXDXDXDXDXDXDXDXDX].).DXDXDXDXDXDXDXDXDXDXDX",
"DXDXDXDXDXDXDXDXDXDXDXDX0XfX6X6X=X0.0.K.K.j.M.Q.'.-XDXDXDXDXDX7.&.4.w.s.<X<X:X7.DXDXDXDXDXDXDXDX",
"DXDXDXDXDXDXDXDXDX2XvXgXf.4.%.6.t.qXaX6X0._ ) R.`.'.-X2XxXnXeXp.g.lXCXSXSXAXZXMXg.DXDXDXDXDXDXDX",
"DXDXDXDXDXDXDX2.6.qXO.5 l ` ]  .' _ ,XBXVXzX3.v.Z.'.;XzXvX-.C n F Z 6.MXSXSXSXSXAXpXDXDXDXDXDXDX",
"DXDXDXDXDXDXD -.q.4 * [ !.!.K.K.1.[.Q.y.BXSXCX:X` Y.cXuX0 ] Z.x.x.j.` Q gXAXSXSXSXAXs.DXDXDXDXDX",
"DXDXDXDXDXZ -.pX# * P E.|.|.!.K.C.G.P.Y.<XAXSXAXtX2XjX8 3.%X|.x.z.c... . .iXAXSXSXSXBX+.DXDXDXDX",
"DXDXDXDX:.o.BXy 3 9 P.R.!..X|.XXM.W.E.P.<.NXSXSXAXeXR l %X3X_.x.j.| { { ..3.pXSXSXSXSXsX6 DXDXDX",
"DXDXDXDX6 NXbX# > ..I.E.R.|.{.OXb.X.C.T.U.pXSXSXZX6 5 T K._.@Xz.j.{ { [  ...0.mXSXSXSXVXo.DXDXDX",
"DXDXDX8 pXAXs.: 2 !.E.T.R.[.G.V.M.m.V.m.`.q.SXSXNX3 8 | ..K.Q.v.j.{ [ { ....1.u.AXSXSXSXs.4 DXDX",
"DXDXDXo.CXAXo.3 _ #X!.T.F.D.S.R.C.C.A.C.!.*.ZXSXbX3 z !.!...{ ) ) } } } ..| [ *.mXSXSXSXlX6 DXDX",
"DXDX6 dXSXVX3 5 P.*X.XZ.V.C.R.F.S.M.n.D.R.$.VXSXhX3 B !.#X#Xm.j.l.j.c.c.| c.DXDXs.SXSXSXBXr DXDX",
"DXDXr CXSXMX3 < !.#XoXV.v.B.C.C.n.M.n.A.B.:.NXSXrX3 _ !.#XXX#XM.I l.j.c.n.n.DXDX=.CXSXSXCXu # DX",
"DXDXe.AXSXlX3 9 #X[.F.F.[.S.C.B.C.S.S.S.T.] mXSXqX3 [ R.|..X#X!.U h I N.C.c.DXDXO.mXSXSXZXu 3 DX",
"DXu hXSXSXsX3 v oXR.R.}.F.F.A.A.C.S.D.F.n.] lXSXg.3 [ E.[.T.M.^ f J K h.B.) DXDX%.rXSXSXAXy 3 DX",
"DX6 NXSXSXpX3 K |.@X|.oXoXG.D.V.v.B.A.G.v.' hXSXg.3 m ` | | v.b.) j.j./ z.I DXDXDXr.SXSXZXr 3 DX",
"DXy CXSXSXrX3 B &X5X.X}.[.F.V.v.K K / / / ' dXSXs.3 M c.n.Z.}.R.n.j.k.c.U I DXDXDX-.AXSXVX4 # DX",
"DXu ZXSXSXpX3 7 ] ] L P P K Y U / j.z.V.A.] dXSXg.3 P n.F.[.}.[.B.z.c.( J j.K DXDXo.AXSXmX3 . DX",
"DXo.AXSXSXdX3 % _ L...M.B.D.V.V.v.N.V.D.D. .sXSXs.> J v.S.F.oXS.V.x.) ( K ) K DXDXo.AXSXqX#   DX",
"DXo.AXSXSXbX3 * m.Y.!.|.S.F.F.V.v.x.D.D.G.K.uXAXs.5 J b.v.A.F.S.C.j./ L g I M DXDXo.AXZXu 3 DXDX",
"DXO.ZXSXSXMX6 d DXDX&X#X}.[.F.F.B.x.D.G.H.I.qXSXs.3 J v.A.S.}.R.Z.k.) H s M M H DXo.AXhX# + DXDX",
"DX%.VXSXSXVXy , DXDX3X#XOX}.G.F.V.V.D.H.H.!.s.SXg.5 P n.Z.F.oX[.R.B.) h s a m H DX-.VXu 3 DXDXDX",
"DX=.mXSXSXAX+.5 DXDX>X|.|.}.D.F.B.V.V.G.F.!.w.SXqX3 J b.Z.S.[.Z.M.n.K f M N C J @.s.g.# + DXDXDX",
"DXDXrXSXSXSXg.3 DXDX-X!.W.S.B.V.B.B.V.F.G.|.q.AXuX3 J b.n.A.[.R.!.M.d i m N e ^ u qX# 3 DXDXDXDX",
"DXDXr.ZXSXSXmXr v DX;X%XXX|.{.F.V.V.V.V.V.E.q.SXhX3 M ) v.R..XR.!.L M i v l ( Q p.=.3   DXDXDXDX",
"DXDXDXmXSXAXmX=.7 I.!. X|.|.{.F.S.F.G.G.G.K.r.SXbX5 f c.n.Z.R.m.` ` M M p M ] w.hXr . DXDXDXDXDX",
"DXDXDXDXs.+.6 O.y DX;X).|.F.C.Z.C.D.J.J.}. .eXSXBXr m Y } c.v.[ J ..P z d _ Z lX;.. DXDXDXDXDXDX",
"DXDXDXDXDXDX: & t.r 0.^.`. X[.R.n.n.V.F.{.F bXSXZXo.N | c.c.| M [ [ m d P q g.q.+ 3 DXDXDXDXDXDX",
"DXDXDXDXDXDXDXDX5.,.G U.`._.R.R.Z.C.C.V. Xe VXSXAXrXq P ( ( / .... .L z l 4.;.+ 4 4 DXDXDXDXDXDX",
"DXDXDXDXDXDXDXDXDXt.N | ^.'.>X4X8X7X7X0XyXwXp.r.r.r.R 0.=X=X(.U.1..._ c #.+.+ 3 r 4 DXDXDXDXDXDX",
"DXDXDXDXDXDXDXDXqXsXeXy.tX1Xi.9.,.#.W ! $.A n n e A e A W W :.4.w.a.d.d.g.+.o.R y 4 DXDXDXDXDXDX",
"DXDXDXDXDXmXlXrX6.u t q 1 v V L M { [ c.c.( J c.M.c.K J M ^ ( L L L 9 7 0 y +.e.p.+.3 DXDXDXDXDX",
"DXDXDXeXO.6 DXDX+ # W ] _ M _ Y ( m.[ m J } | | W.) H L H ^ ( L ` _ z 1 = * # # 3 : + DXDXDXDXDX",
"DXDXDXDXDXDXDXDX3 : F ' ] _ J J P K m [ b.n...| [ ( h V J L ^ V V B l - & @ + # # DXDXDXDXDXDXDX",
"DXDXDXDXDXDXDXDX: 4 C G _  .L J k g J | b.| { { ^ J d d m B V v v c - & & X X + # DXDXDXDXDXDXDX",
"DXDXDXDXDXDXDXDX4 4 x z B T ` [ K k M P P J L L m g M i z v f a 2 7 & $ $ X . . . DXDXDXDXDXDXDX",
"DXDXDXDXDXDXDXDX4 4 0 l v N V J J M H M M m M f s f d i i p d 1 ; < $ @ + .   . . DXDXDXDXDXDXDX",
"DXDXDXDXDXDXDXDX6 6 8 9 x m m m V M M d g d 1 1 s M d p 1 1 s - = 7 $ X X . . . . DXDXDXDXDXDXDX",
"DXDXDXDXDXDXDXDXDXDX8 0 x c v m m m m f s j s z I g 1 - - ; - & * > + X . . . + . DXDXDXDXDXDXDX",
"DXDXDXDXDXDXDXDXDXDXDXq x x l z v v z z f j U J M 2 - - - - & $ $ * + . . . + . . DXDXDXDXDXDXDX",
"DXDXDXDXDXDXDXDXDXDXDXDXDXb q x x 9 9 l 1 p B.P 2 < & & & % $ $ + o X X DXDXDX. DXDXDXDXDXDXDXDX",
"DXDXDXDXDXDXDXDXDXDXDXDXDXDXDXq 9 < < 7 = d ..7 > > & & $ @ * @ @ + DXDXDXDXDXDXDXDXDXDXDXDXDXDX",
"DXDXDXDXDXDXDXDXDXDXDXDXDXDXDXDXDXDXDXDXDXDX> > 5 > * * + DXDXDXDXDXDXDXDXDXDXDXDXDXDXDXDXDXDXDX"
};
