/* XPM */
const static char *gae_mapeditor_xpm[] = {
/* columns rows colors chars-per-pixel */
"32 32 202 2 ",
"   c #0D0D0D",
".  c #0F100E",
"X  c #10130F",
"o  c #11180F",
"O  c #141514",
"+  c #141C11",
"@  c #1C1C1C",
"#  c #162211",
"$  c #192314",
"%  c #1C2B15",
"&  c #1E231C",
"*  c #1E2D18",
"=  c #1E3116",
"-  c #20241E",
";  c #212B1C",
":  c #22361A",
">  c #253B1C",
",  c #232323",
"<  c #242B21",
"1  c #292D27",
"2  c #292929",
"3  c #253220",
"4  c #2A3524",
"5  c #2A3C23",
"6  c #2E312D",
"7  c #2F3F29",
"8  c #303D2A",
"9  c #343434",
"0  c #353834",
"q  c #3C3C3C",
"w  c #27451A",
"e  c #29441D",
"r  c #274819",
"t  c #2A4C1C",
"y  c #2C531C",
"u  c #325F1E",
"i  c #31601D",
"p  c #2F4226",
"a  c #2E4923",
"s  c #314627",
"d  c #314B26",
"f  c #32452A",
"g  c #35482D",
"h  c #335325",
"j  c #345C24",
"k  c #365329",
"l  c #39532F",
"z  c #3B5B2D",
"x  c #394535",
"c  c #3F463C",
"v  c #3C5433",
"b  c #3C5831",
"n  c #356123",
"m  c #396626",
"M  c #376D20",
"N  c #3A6B25",
"B  c #3B642A",
"V  c #3D692B",
"C  c #3C7126",
"Z  c #3F7927",
"A  c #3D7028",
"S  c #425D37",
"D  c #455A3C",
"F  c #406C2D",
"G  c #417F27",
"H  c #41742D",
"J  c #427D2A",
"K  c #426534",
"L  c #436B33",
"P  c #49653D",
"I  c #486B39",
"U  c #467432",
"Y  c #4A7737",
"T  c #467A31",
"R  c #4A7C34",
"E  c #4C743B",
"W  c #4E7A3C",
"Q  c #50763F",
"!  c #507A3D",
"~  c #424242",
"^  c #434941",
"/  c #4C4C4C",
"(  c #465540",
")  c #4B5F43",
"_  c #50564D",
"`  c #535A4F",
"'  c #525352",
"]  c #585B57",
"[  c #5C5D5C",
"{  c #4C6441",
"}  c #4F6E41",
"|  c #506A45",
" . c #53644B",
".. c #53684B",
"X. c #527542",
"o. c #547B43",
"O. c #567748",
"+. c #59734D",
"@. c #577B48",
"#. c #597C4A",
"$. c #5B6756",
"%. c #5A6E52",
"&. c #5E625C",
"*. c #5F685A",
"=. c #5E7555",
"-. c #607557",
";. c #62715C",
":. c #646564",
">. c #656864",
",. c #686F64",
"<. c #6C6D6B",
"1. c #687761",
"2. c #6B7964",
"3. c #6C7468",
"4. c #727272",
"5. c #767D74",
"6. c #787878",
"7. c #46842C",
"8. c #48872C",
"9. c #47892B",
"0. c #4A8B2E",
"q. c #4B902E",
"w. c #4B8333",
"e. c #4D8C32",
"r. c #518F37",
"t. c #51823B",
"y. c #538C3B",
"u. c #4F9134",
"i. c #529436",
"p. c #539A35",
"a. c #55933A",
"s. c #58933F",
"d. c #569A39",
"f. c #599B3D",
"g. c #56A337",
"h. c #57A138",
"j. c #5AA23C",
"k. c #5DAB3C",
"l. c #568343",
"z. c #568C40",
"x. c #598A44",
"c. c #5D854C",
"v. c #5C9444",
"b. c #5E9B44",
"n. c #5F9549",
"m. c #608C4D",
"M. c #609847",
"N. c #62934D",
"B. c #649D4C",
"V. c #658B55",
"C. c #699657",
"Z. c #679952",
"A. c #6A9D54",
"S. c #6B9659",
"D. c #5DA240",
"F. c #5FAA40",
"G. c #62A446",
"H. c #62AB44",
"J. c #66A34B",
"K. c #67AA4B",
"L. c #6CAD51",
"P. c #6FA159",
"I. c #71A25D",
"U. c #6C8462",
"Y. c #6E8B63",
"T. c #708667",
"R. c #76856F",
"E. c #7C9A6F",
"W. c #7B8377",
"Q. c #7C8A76",
"!. c #7E807D",
"~. c #7D9374",
"^. c #7AA269",
"/. c #828A7E",
"(. c #8AA37F",
"). c #878887",
"_. c #898D87",
"`. c #8E8E8E",
"'. c #899683",
"]. c #8F908E",
"[. c #939393",
"{. c #979A96",
"}. c #9B9C9B",
"|. c #99A594",
" X c #A2AE9E",
".X c #A2A3A2",
"XX c #A4ABA2",
"oX c #ACADAC",
"OX c #B4B4B4",
"+X c #BFBFBF",
"@X c #B4C1AF",
"#X c #BFC5BC",
"$X c #C2C2C2",
"%X c #CDCDCD",
"&X c #D3D3D3",
"*X c #DCDCDC",
"=X c #E3E3E3",
"-X c #E7E8E6",
";X c #EDEDED",
":X c #F3F3F3",
">X c #FEFEFE",
",X c None",
/* pixels */
",X,X,X,X,X,X,X,X,X,X,X,X,X,X,X,X,X,X,X,X,X,X,X,X,X,X,X,X,X,X,X,X",
",X,X,X,X,X,X,X,X,X,X,X,X,X,X,X,X,X,X,X,X,X,X,X,X,X,X,X,X,X,X,X,X",
",X,X,X,X,X,X,X,X,X,X,X,X,X,X,X,X,X,X,X,X,X,X,X,X,X,X,X,X,X,X,X,X",
",X,X,X,X,X,X,X,X,X,X,X,X,X,X,X,X,X,X,X,X,X,X,X,X,X,X,X,X,X,X,X,X",
",X,X,X,X,X,X,X,X,X@.O.I ! o.i.c.Y.,X,X,X,X,X@.+.=.,X,X,X,X,X,X,X",
",X,X,X,X,X,X(.|.W.3.3.5.'.U.V v.S.Y.,X@X5.,..X*X=X%XXX,X,X,X,X,X",
",X,X,X,X,X>.' 4 L ! X.Y ~.*X#Xc.z.E.XX` b B S /.;X>X>X%X,X,X,X,X",
",X,X,X{ <.q ; z.J.M.z.f.x.Q.>X-XT.XXx S.b.q.R Y U.*X>X>X.X,X,X,X",
",X,X,X&.}.@ K n.B.G.K.y.v.@.%X>X%X0 K I.B.7.Y Y W R.:X>X:X' ,X,X",
",X,XD *X] 4 n.v.b.F.f.t.i.N.{.>X}.< Y x.b.7.T U W o..X>X>X}., ,X",
",X,X`.;X9 h L.v.d.f.f.a.d.n.W.>X6.g B.v.U 9.T R Y U &.:X>X&X, ,X",
",X~ =X*X- t.L.j.i.a.a.y.p.a.2.>X:.v J.L.B.G 8.7.e.,X,XOX>X;X9 ,X",
",X:.>X$X& M.D.D.j.d.a.d.j.a.=.:X:.b B.K.J.H i 7.a.,X,X).>X:Xq ,X",
",X{.>XOX, D.B.H.k.j.p.i.j.i. .:X[ a R w.T H J J 0.,X,X<.>X:X9 ,X",
",XOX>XOX& A.P.a.e.e.J C J 7.{ :X&.a y.f.H.i.9.w.Z n ,X[ :X*X, ,X",
",X$X>X+X& l E T e.i.e.0.p.g...:X[ a y.j.H.p.0.H n 7.,X] :XoX@ ,X",
",X$X>X&X- W C.J.j.j.p.u.g.k.| ;X[ d e.i.j.i.7.N y N ,X' :X/ @ ,X",
",XoX>X-X6 ,X,XL.K.k.g.p.g.k.! =X&.h y.D.H.b.e.m r k B ] oX- ,X,X",
",X].>X>X' ,X,XB.G.f.p.u.g.k.X.*X:.h r.f.f.s.w.y h g I :.9 O ,X,X",
",X,X;X>X[.8 ,XE.J.j.d.p.p.g.E *X4.k R a.G.M.B r h j  .:.@ ,X,X,X",
",X,XoX.X>.9 m.J.G.j.j.j.k.k.P ;X].d 7.y.y.U L j a K }.9 ,X,X,X,X",
",X,X,X,X&  .~ V.A.b.f.i.f.H. .:X+Xf R w.H B E t z &./ @ ,X,X,X,X",
",X,X,X,X,X,X .X.C.Z.Z.A.I.^.6.OXoX_ #.@.l.! U d ( q , 2 ,X,X,X,X",
",X,X,X,X,X{._.$.2.1.=. .{ X.b k f g v D  .%.;.*.&./ ' 0 ,X,X,X,X",
",X,X[.4.' 2 < b h L V R T w.H T a.A n K H L L > ; , 9 q - ,X,X,X",
",X,X,X,X,X,X1 P I B m H B U t.w.R N j V F B k : % O @ , ,X,X,X,X",
",X,X,X,X,X,X1 l K L N u m R U L B j t j j p > % +   O ,X,X,X,X,X",
",X,X,X,X,X, 1 p d B V n j j j j t y w e e : ; + o     ,X,X,X,X,X",
",X,X,X,X,X,X1 5 s h j j j y t w y y : > > % ; X       ,X,X,X,X,X",
",X,X,X,X,X,X,X6 p p s d a y i j j : = = % $ &   .   . ,X,X,X,X,X",
",X,X,X,X,X,X,X,X,X7 p p p > j Y > = % # $ + O ,X,X,X,X,X,X,X,X,X",
",X,X,X,X,X,X,X,X,X,X,X,X,X,X: 3 < & $ o ,X,X,X,X,X,X,X,X,X,X,X,X"
};
