/* XPM */
static const char *brush_resource_6[] = {
/* columns rows colors chars-per-pixel */
"16 16 2 1",
"  c #00FF00",
". c None",
/* pixels */
"................",
".  ..........  .",
".   ........   .",
"..   ......   ..",
"...   ....   ...",
"....   ..   ....",
".....      .....",
"......    ......",
"......    ......",
".....      .....",
"....   ..   ....",
"...   ....   ...",
"..   ......   ..",
".   ........   .",
".  ..........  .",
"................"
};
