/* XPM */
const static char *gae_g3dviewer_xpm[] = {
/* columns rows colors chars-per-pixel */
"48 48 256 2 ",
"   c #0C0D0D",
".  c #060606",
"X  c #0E1115",
"o  c #0E151B",
"O  c #121313",
"+  c #12161D",
"@  c #1C1C1C",
"#  c #14181C",
"$  c #0D0F11",
"%  c #131B24",
"&  c #181E23",
"*  c #121E2B",
"=  c #0F1A25",
"-  c #1E2125",
";  c #15202E",
":  c #1E252E",
">  c #132333",
",  c #1A2633",
"<  c #14263A",
"1  c #1B2B3C",
"2  c #19293A",
"3  c #232324",
"4  c #222629",
"5  c #25282B",
"6  c #2B2C2C",
"7  c #232A32",
"8  c #262F38",
"9  c #2B2E31",
"0  c #26313D",
"q  c #2B3137",
"w  c #333333",
"e  c #36393C",
"r  c #162D45",
"t  c #162F4A",
"y  c #1D3146",
"u  c #1A324C",
"i  c #16314D",
"p  c #143354",
"a  c #1B3754",
"s  c #143658",
"d  c #13395D",
"f  c #1D3B5B",
"g  c #183658",
"h  c #253343",
"j  c #293543",
"k  c #24364A",
"l  c #26394C",
"z  c #363C44",
"x  c #233B54",
"c  c #233F5C",
"v  c #293F55",
"b  c #153B63",
"n  c #1A3D62",
"m  c #153E6A",
"M  c #3B434A",
"N  c #34414E",
"B  c #25415E",
"V  c #2C4356",
"C  c #33465A",
"Z  c #384758",
"A  c #1D4165",
"S  c #1B436B",
"D  c #1A486E",
"F  c #1A4573",
"G  c #1D4A75",
"H  c #1C4B7C",
"J  c #154678",
"K  c #1A5079",
"L  c #254363",
"P  c #22466B",
"I  c #26496C",
"U  c #2A4A6B",
"Y  c #234B65",
"T  c #364B61",
"R  c #334D67",
"E  c #3A5066",
"W  c #3C546D",
"Q  c #234B75",
"!  c #2D4E72",
"~  c #244E7B",
"^  c #204772",
"/  c #26517C",
"(  c #2C537C",
")  c #20597B",
"_  c #35597E",
"`  c #365677",
"'  c #24647E",
"]  c #434444",
"[  c #41464C",
"{  c #4A4B4B",
"}  c #464F58",
"|  c #4A5159",
" . c #525354",
".. c #5B5B5B",
"X. c #53565A",
"o. c #46586B",
"O. c #415366",
"+. c #525B62",
"@. c #565E65",
"#. c #4B6679",
"$. c #5A6268",
"%. c #636364",
"&. c #65696D",
"*. c #6C6C6C",
"=. c #646769",
"-. c #636C74",
";. c #686C71",
":. c #6B737A",
">. c #75797B",
",. c #7D7D7D",
"<. c #717273",
"1. c #1A4E83",
"2. c #154980",
"3. c #1C528B",
"4. c #1A5488",
"5. c #1C5692",
"6. c #1D5A93",
"7. c #1B5A98",
"8. c #255584",
"9. c #23568A",
"0. c #255A8D",
"q. c #2A5B8C",
"w. c #2C5983",
"e. c #3A5E86",
"r. c #245C94",
"t. c #2B5E93",
"y. c #245E9B",
"u. c #215790",
"i. c #214F81",
"p. c #1E6199",
"a. c #22638C",
"s. c #266B89",
"d. c #286888",
"f. c #3B6186",
"g. c #3B638C",
"h. c #37668A",
"j. c #2A708B",
"k. c #216395",
"l. c #2D6294",
"z. c #23659C",
"x. c #2B639C",
"c. c #226A98",
"v. c #356391",
"b. c #3B6591",
"n. c #3B6896",
"m. c #356A9D",
"M. c #3A6A9B",
"N. c #32669D",
"B. c #25729C",
"V. c #205FA1",
"C. c #1E63A6",
"Z. c #2364A4",
"A. c #2C66A2",
"S. c #2D69A3",
"D. c #246AAC",
"F. c #2C6BAC",
"G. c #2667AC",
"H. c #336BA3",
"J. c #396DA3",
"K. c #346EAA",
"L. c #2172A5",
"P. c #2478AA",
"I. c #3D74AD",
"U. c #3B71A7",
"Y. c #296DB4",
"T. c #326FB1",
"R. c #2E70B4",
"E. c #2C72BC",
"W. c #2573B0",
"Q. c #3372B4",
"!. c #3B75B2",
"~. c #3D79B4",
"^. c #3476BC",
"/. c #3679BE",
"(. c #3C7ABB",
"). c #486988",
"_. c #566D86",
"`. c #597A85",
"'. c #466D96",
"]. c #426E9D",
"[. c #4C6E92",
"{. c #4A7599",
"}. c #597B9A",
"|. c #41728D",
" X c #697983",
".X c #777D83",
"XX c #627D9A",
"oX c #4272A3",
"OX c #4175AA",
"+X c #4B7BAC",
"@X c #4878A5",
"#X c #427AB4",
"$X c #427DBB",
"%X c #487CB1",
"&X c #567DA5",
"*X c #2B75C4",
"=X c #2D7CCD",
"-X c #2D78C7",
";X c #347AC3",
":X c #3A7DC3",
">X c #327DCC",
",X c #2E7ED1",
"<X c #407FC2",
"1X c #3885B4",
"2X c #568395",
"3X c #52818A",
"4X c #6A829B",
"5X c #778897",
"6X c #76808A",
"7X c #5D87A8",
"8X c #4981BD",
"9X c #4480BF",
"0X c #5384B6",
"qX c #5899B1",
"wX c #698AA8",
"eX c #788DA3",
"rX c #6B97B5",
"tX c #7C99B5",
"yX c #3B81CA",
"uX c #3582D3",
"iX c #3A84D2",
"pX c #2E80D5",
"aX c #4382C4",
"sX c #4384C9",
"dX c #4888CC",
"fX c #4A87C6",
"gX c #558BC3",
"hX c #458AD1",
"jX c #5A93D0",
"kX c #838383",
"lX c #84888C",
"zX c #8B8B8B",
"xX c #84878A",
"cX c #848D94",
"vX c #8B959C",
"bX c #9B9C9D",
"nX c #939596",
"mX c #8394A7",
"MX c #989DA3",
"NX c #9FA2A3",
"BX c #9EA7B1",
"VX c #ACACAD",
"CX c #A5A6A7",
"ZX c #B2B2B3",
"AX c #B8B9BB",
"SX c #AFBAC7",
"DX c #C5C5C5",
"FX c #CCCCCC",
"GX c #D3D3D4",
"HX c #DCDCDC",
"JX c #CFD2D5",
"KX c #E4E4E4",
"LX c #ECECEC",
"PX c #F4F4F4",
"IX c #FCFCFC",
"UX c None",
/* pixels */
"UXUXUXUXUXUXUXUXUXUXUXUXUXUXUXUXUXUXUXUXUXUXUXUXUXUXUXUXUXUXUXUXUXUXUXUXUXUXUXUXUXUXUXUXUXUXUXUX",
"UXUXUXUXUXUXUXUXUXUXUXUXUXUXUXUXUXUXUXUXUXUXUXUXUXUXUXUXUXUXUXUXUXUXUXUXUXUXUXUXUXUXUXUXUXUXUXUX",
"UXUXUXUXUXUXUXUXUXUXUXUXUXUXUXUXUXUXUXUXUXUXUXUXUXUXUXUXUXUXUXUXUXUXUXUXUXUXUXUXUXUXUXUXUXUXUXUX",
"UXUXUXUXUXUXUXUXUXUXUXUXUXUXUXUXUXUXUXUXUXUXUXUXUXUXUXUXUXUXUXUXUXUXUXUXUXUXUXUXUXUXUXUXUXUXUXUX",
"UXUXUXUXUXUXUXUXUXUXUXUXUXUXUXUXUXUXUXUXUXUXUXUXUXUXUXUXUXUXUXUXUXUXUXUXUXUXUXUXUXUXUXUXUXUXUXUX",
"UXUXUXUXUXUXUXUXUXUXUXUXUXUXUXUXUXUXUXUXUXUXUXUXUXUXUXUXUXUXUXUXUXUXUXUXUXUXUXUXUXUXUXUXUXUXUXUX",
"UXUXUXUXUXUXUXUXUXUXUXUXUXUXUXUX_ e.g.b.g.oXM.].UXUXUXUXUXUXUXUXUXUXUXUXUXUXUXUXUXUXUXUXUXUXUXUX",
"UXUXUXUXUXUXUXUXUXUXUXUXUXUXg.e.e._ e.M.n.y.J.@X2X3XUXUXUXUXUXUXUXUXB.B.j.UXUXUXUXUXUXUXUXUXUXUX",
"UXUXUXUXUXUXUXUXUXUXUXUX!.v.e.b.).f.b.+X].( l.~.+X2X3XUXUXUXUXUXP.B.B.s.j.UXUXUXUXUXUXUXUXUXUXUX",
"UXUXUXUXUXUXUXUXUXUXUX:X#XoXb.'.b.b.0Xg.M.J.K.F.I.{.2X2XqXUXUX1XL.L.s.s.s.j.UXUXUXUXUXUXUXUXUXUX",
"UXUXUXUXUXUXUXUX&XwXwX&X%X#XJ.b.v.$X+Xb.M.OX~.x.x.M.2X2XqXqX1XL.L.c.' s.s.j.UXUXUXUXUXUXUXUXUXUX",
"UXUXUXUXUXUXSXvX} v o. XnXmX].M.K.:XoXn.].+X0X@Xl.v.{.wXrXrX7X{.|.h.|.j.s.s.s.UXUXUXUXUXUXUXUXUX",
"UXUXUXUXUXMX=.* / J.J.J.XXGXJX_.A.#XOXJ.n.#..X6X:.-.lXcX5X6X>.<.<.6XbXnX6X#.' UXUXUXUXUXUXUXUXUX",
"UXUXUXUXz *.4 H !.#XU.!.$X.XLXAXT v.K.K.K.J.4XHXPXKX] 5 y f.h.K Y V +.ZXLXGXvXZ UXUXUXUXUXUXUXUX",
"UXUXUXW >.] : K.<X$X#X!.$X+XCXPXX.U T.H.K.I.0XlXIXZX@ , w.n.OXc.p.a.) Y 5XLXIXGX@.UXUXUXUXUXUXUX",
"UXUXUXM CX%.8 Q.<XfX#XQ.^.<X-.PX,.l T.T.!.!.8X+.LXxX3 I ~.n.w.r.p.p.a.a.' -.GXIXKX%.UXUXUXUXUXUX",
"UXUXUXUXVXDX[ Q.<XhX<XQ.T.^.o.KXnX5 0.;XT.(.$XO.HX%.5 v.dXfXn.V.C.p.p.p.s.s. XGXIXGX{ UXUXUXUXUX",
"UXUXUXUXCXFXzXW %XhXiXE.F.T.E GXzX3 i.T.F.^.$XE FX .7 M.aXdXfXH.5.C.z.p.p.B.UX>.LXIXbX6 UXUXUXUX",
"UXUXUXUXUX[ 9 9 U :X;X;X;X;XR FX..- 0.;XT.:X$XE DX{ q J.aXsXfX~.6.J 4.D.P.c.UX@.NXIXKX{ UXUXUXUX",
"UXUXUXUXUXUXUXM.#X^.:X,X>X<Xz AX3 7 G.;XT.T.<XE DX] j J./.!.S./ b J 4.7.W.p.UXUX%.PXIX,.5 UXUXUX",
"UXUXUXUXUXUXUXiX<X<X<XiX,X$X .%.@ t Y.;XF.y.T.T DXM 8 ~ l.l.A.l.k.p.p.p.Z.4.UXUX{ DXIXZX5 UXUXUX",
"UXUXUXUXUXUXUXUXgXjXdX,XhX).kX@ & n 5.5.y.u.y.T DX] 8 t.F.Q.yX;XF.C.C.k.5.5.UXUX} bXIXGXw UXUXUX",
"UXUXUXUXUXUXUXUXw.` ! 8.4XMXw , m V.G.*X*XG.y.v DX] h A./.:XiX;XY.C.z.a.K t.1.UXUX,.IXKXw O UXUX",
"UXUXUXUXx.UXUXe &.mXeX_.cXz u u.G.Y.*X*X*XY.G.C DX] 0 x.E.>XuX^.E.D.k.4.H r.3.UXUX*.IXKXw # UXUX",
"UXUXUX:XUXUX[ xX<.w | -.NXMX}.K.D.D.*X,XpX=XE.T DX] 8 r.G.E.>XR.R.z.6.K S 4.F UXUX%.IXHX6 # UXUX",
"UXUXsX7.UXUXUXX.3 5 U I.H.mXHXSXv.Y.*X=XpX=X-XT DX] h x.^.;XuX^.R.C.p.D p F S H UX*.IXFX3   UXUX",
"UXUXdXUXUXUXUX1.UXUXgXdXhXaXmXPXVXw.-X=XpXpX>XT DX{ q x.^.;XiX/.^.F.p.D p g c H [ zXIXNX3 . UXUX",
"UXUXUXF.UXUXE.UXUXUXwX<X:X:X[.GXLX| 0.-X=X-X;XZ FX{ 0 t.Q.^.;XK.K.Z.K d S L v Q e VXPX..3 UXUXUX",
"UXUXUXUX/.UX3.UXUXUX}.%X(.^.OXxXIX<.v ^.=X=X:XC GX .0 r.F.R.;X(.~.H.d p P B j e.9 GXJX@ @ UXUXUX",
"UXUXUXUXAX#.y.UXUXUXXXgX<X<XdX@.PXxX7 V.*XE.^.C GX..8 9.F.;XyX~.~.Q D s c l 9.Z  .LX%.3   UXUXUX",
"UXUXUXxX{ o 5.UXUXoX%XfX$X<XsXO.LX.X4 Z.>X*XQ.Z HX*.7 0.F.Q.Q.N.( / F S t L ).6 CXCX@ @ UXUXUXUX",
"UXUXw %.3 UXUX5.UXUXXX+X$X:X(.M KX..4 A.>X-X(.M KXnX7 H r.x.F.0.G l./ f f ! [ ] VX3 3 UXUXUXUXUX",
"UXUX*.] 3 UXUXUXn UX_.@X+XfXgXz JX3 7 F.;XE.I.M LXFXe Q A.x.y.S w.w.B d ( M 9 zX3 3   UXUXUXUXUX",
"UXUX,.%.3 UXUXUXUX9.W ].+X%X{.%.zX@ y F.R.E.]. .PXIX.Xx 0.9.0.t.l.w.K f V { kX3 3 O 3 UXUXUXUXUX",
"UXUX<.VX6 UXUXUXUXR 5.t.oX+XT zX3 4 ^ A.F.F.W nXLXPXLX;.m G 0.8.4.6.U E 6XkX9 @ @ 3 UXUXUXUXUXUX",
"UXUX<.GX<.UXUXUXUXw ! H 8.[.=.{ 3 < t.T.!.tXvX..{ %.kXbX X_.'.'.[.4XeXbX*.6 @ 3 9 5 UXUXUXUXUXUX",
"UXUXUXZXGX*.UXUXUX5 o.o.` cX*.4 > w.t.S.M.! k B ! U c l z X.&.;.*.$.M 7 - & @ 3 6 UXUXUXUXUXUXUX",
"UXUXUXUX*.>.%.UXw : o.XXBX;.7 r / N.q.S G 8.q.0.!.r.F Q F Q P f c B u r > - @ 3 5 UXUXUXUXUXUXUX",
"UXUXUXUXUXUXw ] { { +.} j y n ^ / 1.A 9.N.H.v.t.q.8.F G Q ~ / P Y U u < > + X @ 3 UXUXUXUXUXUXUX",
"UXUXUXUXUXUXUXUX@ - j v U e.! 1.H m H v.x.l.q.t.8.Q n g A P Q c f x > ; * o $ O @ UXUXUXUXUXUXUX",
"UXUXUXUXUXUXUXUX5 5 0 l L ! ` q.3.2.^ i.~ ~ ! Q S m S p f f A u t y * * % X       UXUXUXUXUXUXUX",
"UXUXUXUXUXUXUXUX5 5 8 l v L I I Q S F P n S A A g b b p p i g t 2 , % o o   .     UXUXUXUXUXUXUX",
"UXUXUXUXUXUXUXUX6 6 q h l v B L P P F n m b t t s F g i r t i < , , = X $         UXUXUXUXUXUXUX",
"UXUXUXUXUXUXUXUXUXUX8 0 k x x c L A c b g J s f 3.m r < < r t * ; : + $       O   UXUXUXUXUXUXUX",
"UXUXUXUXUXUXUXUXUXUXUXj l l k x c x a a n J r.F F t < < > < > = & & +         O   UXUXUXUXUXUXUX",
"UXUXUXUXUXUXUXUXUXUXUXUXUXj j k k y k k y p H.8.y 1 < > > * * = o X   $ UXUXUX  UXUXUXUXUXUXUXUX",
"UXUXUXUXUXUXUXUXUXUXUXUXUXUXUXh h 1 1 8 > a e.8 2 , ; > = % & % # O UXUXUXUXUXUXUXUXUXUXUXUXUXUX",
"UXUXUXUXUXUXUXUXUXUXUXUXUXUXUXUXUXUXUXUXUXUX7 , 4 : & & O UXUXUXUXUXUXUXUXUXUXUXUXUXUXUXUXUXUXUX"
};
