/* XPM */
const static char *gae_g3dviewer_xpm[] = {
/* columns rows colors chars-per-pixel */
"32 32 256 2 ",
"   c #0D0D0D",
".  c #0E0F11",
"X  c #0F1114",
"o  c #0E141B",
"O  c #131415",
"+  c #1C1C1C",
"@  c #11171D",
"#  c #0F1822",
"$  c #0F1B28",
"%  c #141D25",
"&  c #121E2B",
"*  c #1C1E21",
"=  c #1E2124",
"-  c #16202A",
";  c #1D252D",
":  c #142333",
">  c #1B2632",
",  c #1E2935",
"<  c #13263A",
"1  c #1E2D3D",
"2  c #15293F",
"3  c #222222",
"4  c #21262C",
"5  c #272A2E",
"6  c #292929",
"7  c #252E37",
"8  c #2F3033",
"9  c #26323E",
"0  c #2D333A",
"q  c #37393B",
"w  c #162D45",
"e  c #1A2E41",
"r  c #1E3246",
"t  c #1A334C",
"y  c #153455",
"u  c #1A3654",
"i  c #153759",
"p  c #15385D",
"a  c #183859",
"s  c #1E3954",
"d  c #243547",
"f  c #25374A",
"g  c #25394F",
"h  c #2B3744",
"j  c #313942",
"k  c #323E4C",
"l  c #233B55",
"z  c #223E5C",
"x  c #2C3D51",
"c  c #153B63",
"v  c #193C60",
"b  c #163F6A",
"n  c #3D4247",
"m  c #2B4056",
"M  c #28425D",
"N  c #354455",
"B  c #3C4C5C",
"V  c #1E4062",
"C  c #17406A",
"Z  c #1D446B",
"A  c #154575",
"S  c #1D4672",
"D  c #1C4D7C",
"F  c #1E4873",
"G  c #1E537A",
"H  c #244466",
"J  c #21456B",
"K  c #2A4A6A",
"L  c #284868",
"P  c #304D6E",
"I  c #214B74",
"U  c #2F4F70",
"Y  c #234E7A",
"T  c #284E78",
"R  c #26517C",
"E  c #255C7A",
"W  c #325272",
"Q  c #3B5774",
"!  c #355A7D",
"~  c #3A5A7C",
"^  c #30537A",
"/  c #444444",
"(  c #4A4A4A",
")  c #474A4D",
"_  c #4E4F50",
"`  c #424F5B",
"'  c #4E5154",
"]  c #5D5D5D",
"[  c #465361",
"{  c #4D5964",
"}  c #48596A",
"|  c #465667",
" . c #535B63",
".. c #445E72",
"X. c #405F7F",
"o. c #59646B",
"O. c #4E657C",
"+. c #4D6074",
"@. c #5C6975",
"#. c #546577",
"$. c #646465",
"%. c #67696C",
"&. c #6A6A6A",
"*. c #646669",
"=. c #656B72",
"-. c #6E6F70",
";. c #6F757B",
":. c #737474",
">. c #74787A",
",. c #1C4E83",
"<. c #1E5087",
"1. c #1F5A8B",
"2. c #1C5C93",
"3. c #1E5D9B",
"4. c #165291",
"5. c #255483",
"6. c #2B5985",
"7. c #235689",
"8. c #2A5B8B",
"9. c #285786",
"0. c #355B83",
"q. c #3B5E83",
"w. c #245B93",
"e. c #2B5F93",
"r. c #205C9B",
"t. c #1F639F",
"y. c #1F6496",
"u. c #22638E",
"i. c #276C89",
"p. c #266B86",
"a. c #3B628C",
"s. c #356C8B",
"d. c #33608C",
"f. c #2D6193",
"g. c #24629B",
"h. c #2C649D",
"j. c #226D9C",
"k. c #266E92",
"l. c #3A6592",
"z. c #3B6A9B",
"x. c #396995",
"c. c #205EA0",
"v. c #1F64A3",
"b. c #2264A3",
"n. c #2B66A5",
"m. c #2C68A7",
"M. c #2C6BAC",
"N. c #2468A9",
"B. c #376CA3",
"V. c #3B6EA4",
"C. c #316EAD",
"Z. c #2273A4",
"A. c #2373AA",
"S. c #3771A6",
"D. c #3571AD",
"F. c #3C73AB",
"G. c #3E71A4",
"H. c #276AB3",
"J. c #2C6DB0",
"K. c #2F71B4",
"L. c #2C72BB",
"P. c #3373B4",
"I. c #3976B7",
"U. c #3D79B5",
"Y. c #3275BB",
"T. c #3977BA",
"R. c #3678B9",
"E. c #3E7CBD",
"W. c #426180",
"Q. c #566F89",
"!. c #536B83",
"~. c #487081",
"^. c #52708E",
"/. c #557D8B",
"(. c #416B99",
"). c #45729B",
"_. c #4E759D",
"`. c #457297",
"'. c #577996",
"]. c #507F9F",
"[. c #5D7792",
"{. c #637485",
"}. c #7E7F80",
"|. c #737C86",
" X c #627A94",
".X c #4271A2",
"XX c #4076AF",
"oX c #4C7AAA",
"OX c #4D75A0",
"+X c #4177B1",
"@X c #437BB5",
"#X c #4B7EB3",
"$X c #427EBE",
"%X c #497FB9",
"&X c #2B76C5",
"*X c #2C7ACB",
"=X c #3177C1",
"-X c #3379C3",
";X c #3C7EC3",
":X c #307BCC",
">X c #2E7FD3",
",X c #407FC6",
"<X c #3186B2",
"1X c #51828B",
"2X c #528198",
"3X c #598A96",
"4X c #7C8187",
"5X c #75818D",
"6X c #6C8094",
"7X c #7F8892",
"8X c #4C82A8",
"9X c #4582BF",
"0X c #4C81B9",
"qX c #5485B8",
"wX c #688CA6",
"eX c #788FA6",
"rX c #7D90A3",
"tX c #6496B6",
"yX c #5CA2B8",
"uX c #3C80C6",
"iX c #3680CF",
"pX c #3980C9",
"aX c #3080D5",
"sX c #3983D1",
"dX c #4282C4",
"fX c #4686C8",
"gX c #4689CF",
"hX c #4888CA",
"jX c #838384",
"kX c #86898C",
"lX c #8F949A",
"zX c #909090",
"xX c #9C9C9C",
"cX c #8995A1",
"vX c #8D9DAA",
"bX c #969DA4",
"nX c #9A9EA3",
"mX c #8E9FB2",
"MX c #9AA2AB",
"NX c #90A6BD",
"BX c #A3A4A4",
"VX c #ACACAC",
"CX c #A1AAB0",
"ZX c #B2B2B2",
"AX c #BBBBBB",
"SX c #BEC3C6",
"DX c #C3C3C3",
"FX c #C9C9C9",
"GX c #D3D3D3",
"HX c #DADBDC",
"JX c #DDDFE1",
"KX c #E5E5E5",
"LX c #ECECEC",
"PX c #F5F5F5",
"IX c #FAFAFA",
"UX c None",
/* pixels */
"UXUXUXUXUXUXUXUXUXUXUXUXUXUXUXUXUXUXUXUXUXUXUXUXUXUXUXUXUXUXUXUX",
"UXUXUXUXUXUXUXUXUXUXUXUXUXUXUXUXUXUXUXUXUXUXUXUXUXUXUXUXUXUXUXUX",
"UXUXUXUXUXUXUXUXUXUXUXUXUXUXUXUXUXUXUXUXUXUXUXUXUXUXUXUXUXUXUXUX",
"UXUXUXUXUXUXUXUXUXUXUXUXUXUXUXUXUXUXUXUXUXUXUXUXUXUXUXUXUXUXUXUX",
"UXUXUXUXUXUXUXUXUXUX0.~ l.l.B.)./.UXUXUXUXUXUXUXUXUXUXUXUXUXUXUX",
"UXUXUXUXUXUXUXUXV.a.a.a.(..X5.F.].1XUXUXUXUXZ.k.i.UXUXUXUXUXUXUX",
"UXUXUXUXUXUXUXE.+Xz.l.x.oXz.V.C.S.2X3XyX<XZ.j.i.p.UXUXUXUXUXUXUX",
"UXUXUXUXNX#.+.{.eXOXz.I..Xz.#X.Xf.`.wXtX8Xx.s.s.i.i.UXUXUXUXUXUX",
"UXUXUX4Xn T V.B.eXHX[.B.G.B.!.nXMX4X=.@.@.o.>.BXvXO.UXUXUXUXUXUX",
"UXUXN *.1 $X@XF.$XMXAXK C.D.XXcXIX/ 1 x.S.u.G Q SXLXMXUXUXUXUXUX",
"UXUX .xXM ,XfXI.I.Q.KX0 J.I.I.O.HX6 d.F.u.g.u.u.E CXIXMXUXUXUXUX",
"UXUXUXGX=.+XhX-XM.a.GX8 e.M.T.W.AX3 F.hX@X3.v.y.j.! ZXIX:.UXUXUX",
"UXUXUXUX9 K -X-X-X~ ZX* n.K.;Xq.ZX; F.dX9X1.A 3.A.UX .KXDX6 UXUX",
"UXUXUXUXUXdX$XsX>X..] , Y.J.n.! VX; 8.h.f.7.2.y.b.UXUXBXPX/ UXUX",
"UXUXUXUXUXUX0XC.oX%.= c r.c.w.U VX; n.I.pXK.t.g.2.S UXjXIX] UXUX",
"UXUXUXUXUX[  X^.kXh ,.N.&X&XH.^ VX; m.-XiXL.b.1.D r.UX:.IX%.UXUX",
"UXUXm.UX&.] q ..cXmXF.H.&X>X&X! VX; g.L.=XK.t.G b ,.UX*.IX] UXUX",
"UXdXUXUXUXj } fX;XmXJXq.*X>X*X0.ZX; m.-XsXR.b.G y V 6.%.PXq UXUX",
"UXUXM.UXc.UXUX%X;X.XGXkXe.*X&X! AX4 h.P.R.D.j.p Z x P jXFX+ UXUX",
"UXUXUX[.r.UXUXqX,X,XlXVXz &X&X! SX4 w.Y.uXU.F i V H n SX] + UXUX",
"UXUX&.* 4.UX_.%X$X,X|.BXr :XL.Q GX5 w.m.C.9.Y Z u ..( xX* UXUXUX",
"UX] / UXUXb UXOX#X$X;.&.l =XL.| LX' 5.h.w.Y d.a U q >.3 O UXUXUX",
"UX>.$.UXUXUX5.(.oX).>.6 I K.I. .IXAXH 5.w.6.9.V [ $.3 + UXUXUXUX",
"UXUXZXUXUXUXk ,.l.#.( 4 e.C.wX:.jXBXkXX.a.x.'.5X-.3 3 6 UXUXUXUX",
"UXUXZXzXUXUX0 ~  X&.> T e.f.K L 6.L l B { { ` 7 & + 6 6 UXUXUXUX",
"UXUXUXUX( ( ) @.[ t J 9.I 8.h.e.e.D I Y R J H w : O + 3 UXUXUXUX",
"UXUXUXUXUX3 4 m P ^ <.A Y e.8.9.T C u Z H s r & &   O UXUXUXUXUX",
"UXUXUXUXUX6 6 f z K T S S S J J a b y y u w : % o     UXUXUXUXUX",
"UXUXUXUXUXUX6 d g M H L b c p t b p w w w : ; X       UXUXUXUXUX",
"UXUXUXUXUXUXUX9 d g l z l v ,.S S e < < : % % .       UXUXUXUXUX",
"UXUXUXUXUXUXUXUXUXd g r d e Z 6.1 < : $ & @ O UXUXUXUXUXUXUXUXUX",
"UXUXUXUXUXUXUXUXUXUXUXUXUXUX, 7 , - % o UXUXUXUXUXUXUXUXUXUXUXUX"
};
